<svg class="svgicon" id="svg59" preserveAspectRatio="xMidYMid meet" xmlns="http://www.w3.org/2000/svg" viewBox="0 0 128 128"><rect x="1.92" y="1.92" width="124.16" height="124.16" style="stroke: rgb(0, 189, 0); fill: none; stroke-alignment: inside; stroke-width: 3.84" rx="62.08" ry="62.08"></rect><g transform="scale(0.6) translate(42.66666666666667, 42.66666666666667)"><path class="st0" d="M111.119,37.427L99.611,25.92c-1.172-1.171-3.07-1.171-4.242,0L48.694,72.596L32.732,56.635 c-1.125-1.125-3.117-1.125-4.242,0L16.88,68.247c-1.172,1.172-1.172,3.071,0,4.242l29.589,29.59 c0.562,0.562,1.325,0.879,2.121,0.879s1.559-0.316,2.121-0.879l60.408-60.409c0.562-0.562,0.879-1.326,0.879-2.121 C111.998,38.753,111.682,37.99,111.119,37.427z"></path></g></svg>